<svg width="636" height="176" viewBox="0 0 636 176" fill="none" xmlns="http://www.w3.org/2000/svg">
<rect width="636" height="176" fill="#F2CFF2"/>
<path fill-rule="evenodd" clip-rule="evenodd" d="M244 71.9999L228 88L244 104L249.564 98.4365C251.196 99.2673 253.043 99.7357 255 99.7357H276C277.657 99.7357 279 98.3926 279 96.7357V78.7357C279 77.0789 277.657 75.7357 276 75.7357H255C252.904 75.7357 250.933 76.2732 249.218 77.218L244 71.9999ZM249.218 77.218C245.511 79.26 243 83.2046 243 87.7357C243 92.4062 245.668 96.4536 249.564 98.4365L260 88L249.218 77.218Z" fill="#38B5D0"/>
<path d="M304.701 116.904V99.4262H305.283C306.157 104.32 309.42 107.583 316.353 107.583C324.975 107.583 329.811 101.873 329.811 92.3184C329.811 82.822 324.859 77.0543 315.887 77.0543C309.012 77.0543 305.516 79.7342 304.584 85.5602H304.002V77.6369H293.748V116.904H304.701ZM304.701 92.668V92.2602C304.701 88.0072 307.031 87.075 311.925 87.075C316.994 87.075 318.741 88.415 318.741 92.3184C318.741 96.2219 316.994 97.6201 311.925 97.6201C307.031 97.6201 304.701 96.8045 304.701 92.668ZM343.674 107V67.9657H332.721V107H343.674ZM359.232 107.583C367.213 107.583 370.476 102.98 371.117 98.0862H371.699V107H381.953V77.6369H371V92.7845C371 96.5714 369.777 97.7949 364.708 97.7949C359.698 97.7949 358.125 96.5132 358.125 92.435V77.6369H347.172V96.4549C347.172 102.805 351.017 107.583 359.232 107.583ZM407.199 107V97.154H401.955C399.45 97.154 398.751 96.5714 398.751 94.241V86.6089H407.199V77.6369H398.751V72.5682H387.798V77.6369H383.487V86.6089H387.798V95.814C387.798 103.446 392.167 107 399.508 107H407.199Z" fill="#330075"/>
</svg>
