<svg width="290" height="176" viewBox="0 0 290 176" fill="none" xmlns="http://www.w3.org/2000/svg">
<rect width="290" height="176" fill="#F2CFF2"/>
<path fill-rule="evenodd" clip-rule="evenodd" d="M56 71.9999L40 88L56 104L61.5635 98.4365C63.1956 99.2673 65.0431 99.7357 67 99.7357H88C89.6569 99.7357 91 98.3926 91 96.7357V78.7357C91 77.0789 89.6569 75.7357 88 75.7357H67C64.9037 75.7357 62.933 76.2732 61.2181 77.218L56 71.9999ZM61.2181 77.218C57.5113 79.26 55 83.2046 55 87.7357C55 92.4062 57.6683 96.4536 61.5635 98.4365L72.0001 88L61.2181 77.218Z" fill="#38B5D0"/>
<path d="M116.701 116.904V99.4262H117.283C118.157 104.32 121.42 107.583 128.353 107.583C136.975 107.583 141.811 101.873 141.811 92.3184C141.811 82.822 136.859 77.0543 127.887 77.0543C121.012 77.0543 117.516 79.7342 116.584 85.5602H116.002V77.6369H105.748V116.904H116.701ZM116.701 92.668V92.2602C116.701 88.0072 119.031 87.075 123.925 87.075C128.994 87.075 130.741 88.415 130.741 92.3184C130.741 96.2219 128.994 97.6201 123.925 97.6201C119.031 97.6201 116.701 96.8045 116.701 92.668ZM155.674 107V67.9657H144.721V107H155.674ZM171.232 107.583C179.213 107.583 182.476 102.98 183.117 98.0862H183.699V107H193.953V77.6369H183V92.7845C183 96.5714 181.777 97.7949 176.708 97.7949C171.698 97.7949 170.125 96.5132 170.125 92.435V77.6369H159.172V96.4549C159.172 102.805 163.017 107.583 171.232 107.583ZM219.199 107V97.154H213.955C211.45 97.154 210.751 96.5714 210.751 94.241V86.6089H219.199V77.6369H210.751V72.5682H199.798V77.6369H195.487V86.6089H199.798V95.814C199.798 103.446 204.167 107 211.508 107H219.199Z" fill="#330075"/>
</svg>
